<svg width="256px" height="256px" viewBox="0 0 20.00 20.00" xmlns="http://www.w3.org/2000/svg" fill="#000000" transform="rotate(0)"><g id="SVGRepo_bgCarrier" stroke-width="0" transform="translate(0,0), scale(1)"><path transform="translate(0, 0), scale(1.25)" fill="#1c71d8" d="M9.166.33a2.25 2.25 0 00-2.332 0l-5.25 3.182A2.25 2.25 0 00.5 5.436v5.128a2.25 2.25 0 001.084 1.924l5.25 3.182a2.25 2.25 0 002.332 0l5.25-3.182a2.25 2.25 0 001.084-1.924V5.436a2.25 2.25 0 00-1.084-1.924L9.166.33z" strokewidth="0"></path></g><g id="SVGRepo_tracerCarrier" stroke-linecap="round" stroke-linejoin="round" stroke="#CCCCCC" stroke-width="0.040008"></g><g id="SVGRepo_iconCarrier"> <g id="thunder" transform="translate(-4.967 -1.996)"> <path id="secondary" fill="#f5c211" d="M17.76,10.63,9,21l2.14-8H7.05a1,1,0,0,1-1-1.36l3.23-8a1.05,1.05,0,0,1,1-.64h4.34a1,1,0,0,1,1,1.36L13.7,9H17a1,1,0,0,1,.76,1.63Z"></path> <path id="primary" d="M17.76,10.63,9,21l2.14-8H7.05a1,1,0,0,1-1-1.36l3.23-8a1.05,1.05,0,0,1,1-.64h4.34a1,1,0,0,1,1,1.36L13.7,9H17a1,1,0,0,1,.76,1.63Z" fill="none" stroke="#000000" stroke-linecap="round" stroke-linejoin="round" stroke-width="0.940188"></path> </g> </g></svg>